<?xml version="1.0" encoding="UTF-8" standalone="no"?>
<svg
   xmlns:dc="http://purl.org/dc/elements/1.1/"
   xmlns:cc="http://creativecommons.org/ns#"
   xmlns:rdf="http://www.w3.org/1999/02/22-rdf-syntax-ns#"
   xmlns:svg="http://www.w3.org/2000/svg"
   xmlns="http://www.w3.org/2000/svg"
   xmlns:sodipodi="http://sodipodi.sourceforge.net/DTD/sodipodi-0.dtd"
   xmlns:inkscape="http://www.inkscape.org/namespaces/inkscape"
   height="449.28pt"
   version="1.1"
   viewBox="0 0 460.8 449.28"
   width="460.8pt"
   id="svg949"
   sodipodi:docname="coredecomp.svg"
   inkscape:version="1.0.2 (e86c8708, 2021-01-15)">
  <sodipodi:namedview
     pagecolor="#ffffff"
     bordercolor="#666666"
     borderopacity="1"
     objecttolerance="10"
     gridtolerance="10"
     guidetolerance="10"
     inkscape:pageopacity="0"
     inkscape:pageshadow="2"
     inkscape:window-width="1280"
     inkscape:window-height="695"
     id="namedview951"
     showgrid="false"
     inkscape:zoom="0.99372024"
     inkscape:cx="304.18895"
     inkscape:cy="366.84643"
     inkscape:window-x="0"
     inkscape:window-y="25"
     inkscape:window-maximized="1"
     inkscape:current-layer="svg949" />
  <metadata
     id="metadata833">
    <rdf:RDF>
      <cc:Work>
        <dc:type
           rdf:resource="http://purl.org/dc/dcmitype/StillImage" />
        <dc:date>2021-06-14T23:05:10.640165</dc:date>
        <dc:format>image/svg+xml</dc:format>
        <dc:creator>
          <cc:Agent>
            <dc:title>Matplotlib v3.4.2, https://matplotlib.org/</dc:title>
          </cc:Agent>
        </dc:creator>
      </cc:Work>
    </rdf:RDF>
  </metadata>
  <defs
     id="defs837">
    <style
       type="text/css"
       id="style835">*{stroke-linecap:butt;stroke-linejoin:round;}</style>
  </defs>
  <g
     id="figure_1">
    <g
       id="patch_1">
      <path
         d="M 0 449.28  L 460.8 449.28  L 460.8 0  L 0 0  z "
         style="fill:none;"
         id="path839" />
    </g>
    <g
       id="axes_1">
      <g
         id="PolyCollection_1">
        <path
           clip-path="url(#p3dcdc10251)"
           d="M 56.263919 160.234656  L 54.530506 160.462864  L 52.915223 161.131936  L 51.528148 162.196276  L 50.463808 163.583351  L 45.402883 170.889153  L 44.733811 172.504436  L 44.505603 174.237849  L 44.733811 175.971261  L 45.402883 177.586545  L 46.467223 178.97362  L 81.949353 215.7822  L 83.336428 216.846541  L 84.951711 217.515613  L 86.685124 217.743821  L 88.418536 217.515613  L 90.033819 216.846541  L 91.420895 215.7822  L 92.485235 214.395125  L 93.154307 212.779842  L 93.382515 211.04643  L 93.154307 209.313017  L 92.485235 207.697734  L 62.06403 163.583351  L 60.999689 162.196276  L 59.612614 161.131936  L 57.997331 160.462864  z "
           style="fill:#3b528b;fill-opacity:0.5;stroke:#000000;stroke-width:2;"
           id="path842" />
        <path
           clip-path="url(#p3dcdc10251)"
           d="M 23.619583 189.578337  L 22.0043 190.247409  L 20.617225 191.311749  L 19.552885 192.698824  L 18.883812 194.314107  L 18.655604 196.04752  L 18.883812 197.780932  L 19.552885 199.396216  L 20.617225 200.783291  L 22.0043 201.847631  L 67.767712 234.219754  L 69.382995 234.888826  L 71.116408 235.117034  L 72.84982 234.888826  L 74.465104 234.219754  L 75.852179 233.155413  L 76.916519 231.768338  L 77.585591 230.153055  L 77.813799 228.419642  L 77.585591 226.68623  L 76.916519 225.070947  L 75.852179 223.683872  L 39.030948 190.177424  L 37.643873 189.113084  L 36.02859 188.444011  L 34.295177 188.215803  L 25.352996 189.350128  z "
           style="fill:#3b528b;fill-opacity:0.5;stroke:#000000;stroke-width:2;"
           id="path844" />
        <path
           clip-path="url(#p3dcdc10251)"
           d="M 17.619514 200.512447  L 19.038635 202.361881  L 20.888068 203.781001  L 23.041779 204.673098  L 25.352996 204.977375  L 34.295177 203.84305  L 36.606394 203.538772  L 38.760105 202.646676  L 40.609538 201.227556  L 57.517355 180.55221  L 58.936475 178.702776  L 63.9974 171.396974  L 64.889496 169.243264  L 65.193774 166.932047  L 64.889496 164.62083  L 63.9974 162.467119  L 62.57828 160.617686  L 60.728846 159.198566  L 58.575135 158.306469  L 56.263919 158.002192  L 53.952702 158.306469  L 51.798991 159.198566  L 49.949557 160.617686  L 19.038635 189.733159  L 17.619514 191.582592  L 16.727418 193.736303  L 16.42314 196.04752  L 16.727418 198.358736  z "
           style="fill:#21918c;fill-opacity:0.5;stroke:#000000;stroke-width:2;"
           id="path846" />
        <path
           clip-path="url(#p3dcdc10251)"
           d="M 62.186553 228.419642  L 62.49083 230.730859  L 63.382927 232.88457  L 64.802047 234.734004  L 66.65148 236.153124  L 68.805191 237.04522  L 71.116408 237.349498  L 73.427624 237.04522  L 75.581335 236.153124  L 77.430769 234.734004  L 92.999485 217.360791  L 94.418605 215.511357  L 95.310701 213.357646  L 95.614979 211.04643  L 95.310701 208.735213  L 94.418605 206.581502  L 92.999485 204.732068  L 91.150051 203.312948  L 88.99634 202.420852  L 86.685124 202.116574  L 84.373907 202.420852  L 82.220196 203.312948  L 80.370763 204.732068  L 64.802047 222.105281  L 63.382927 223.954715  L 62.49083 226.108426  z "
           style="fill:#440154;fill-opacity:0.5;stroke:#000000;stroke-width:2;"
           id="path848" />
        <path
           clip-path="url(#p3dcdc10251)"
           d="M 183.766558 254.623615  L 185.49997 254.851823  L 187.233383 254.623615  L 188.848666 253.954543  L 190.235741 252.890203  L 196.691866 246.801332  L 197.756206 245.414256  L 198.425279 243.798973  L 198.653487 242.065561  L 198.425279 240.332148  L 197.756206 238.716865  L 196.691866 237.32979  L 195.304791 236.26545  L 193.689508 235.596378  L 191.956095 235.368169  L 136.896722 231.066308  L 135.16331 231.294516  L 133.548027 231.963588  L 132.160952 233.027928  L 131.096611 234.415004  L 130.427539 236.030287  L 130.199331 237.763699  L 130.427539 239.497112  L 131.096611 241.112395  L 132.160952 242.49947  L 133.548027 243.56381  L 135.16331 244.232882  z "
           style="fill:#3b528b;fill-opacity:0.5;stroke:#000000;stroke-width:2;"
           id="path850" />
        <path
           clip-path="url(#p3dcdc10251)"
           d="M 132.122722 254.05205  L 130.38931 253.823842  L 128.655897 254.05205  L 127.040614 254.721122  L 125.653539 255.785462  L 124.589199 257.172537  L 123.920126 258.787821  L 123.691918 260.521233  L 123.920126 262.254645  L 124.589199 263.869929  L 125.653539 265.257004  L 127.040614 266.321344  L 178.366572 288.148064  L 179.981856 288.817136  L 181.715268 289.045344  L 183.44868 288.817136  L 185.063964 288.148064  L 186.451039 287.083724  L 187.515379 285.696649  L 188.184451 284.081366  L 188.412659 282.347953  L 188.184451 280.614541  L 187.515379 278.999257  L 183.805361 270.805621  L 182.741021 269.418546  L 181.353946 268.354206  L 179.738663 267.685134  z "
           style="fill:#3b528b;fill-opacity:0.5;stroke:#000000;stroke-width:2;"
           id="path852" />
        <path
           clip-path="url(#p3dcdc10251)"
           d="M 169.075395 274.154317  L 169.379672 276.465533  L 170.271769 278.619244  L 173.981787 286.812881  L 175.400907 288.662314  L 177.25034 290.081434  L 179.404051 290.973531  L 181.715268 291.277808  L 184.026485 290.973531  L 186.180196 290.081434  L 188.029629 288.662314  L 189.448749 286.812881  L 190.340846 284.65917  L 200.581673 244.376777  L 200.88595 242.065561  L 200.581673 239.754344  L 199.689577 237.600633  L 198.270456 235.7512  L 196.421023 234.332079  L 194.267312 233.439983  L 191.956095 233.135706  L 189.644879 233.439983  L 187.491168 234.332079  L 185.641734 235.7512  L 179.185609 241.840071  L 177.766489 243.689504  L 176.874393 245.843215  L 169.379672 271.8431  z "
           style="fill:#21918c;fill-opacity:0.5;stroke:#000000;stroke-width:2;"
           id="path854" />
        <path
           clip-path="url(#p3dcdc10251)"
           d="M 122.655828 264.986161  L 124.074949 266.835594  L 125.924382 268.254714  L 128.078093 269.146811  L 130.38931 269.451088  L 132.700526 269.146811  L 134.854237 268.254714  L 136.703671 266.835594  L 138.122791 264.986161  L 139.014887 262.83245  L 145.5223 240.074916  L 145.826578 237.763699  L 145.5223 235.452483  L 144.630204 233.298772  L 143.211084 231.449338  L 141.36165 230.030218  L 139.207939 229.138121  L 136.896722 228.833844  L 134.585506 229.138121  L 132.431795 230.030218  L 130.582361 231.449338  L 129.163241 233.298772  L 128.271145 235.452483  L 121.763732 258.210016  L 121.459455 260.521233  L 121.763732 262.83245  z "
           style="fill:#440154;fill-opacity:0.5;stroke:#000000;stroke-width:2;"
           id="path856" />
        <path
           clip-path="url(#p3dcdc10251)"
           d="M 147.678695 240.65272  L 148.059041 237.763699  L 147.678695 234.874678  L 146.563574 232.18254  L 144.789674 229.870748  L 142.477882 228.096847  L 92.266283 201.379578  L 89.574144 200.264457  L 86.685124 199.884111  L 83.796103 200.264457  L 81.103964 201.379578  L 78.792172 203.153478  L 63.223457 220.526691  L 61.449556 222.838483  L 60.334436 225.530622  L 59.954089 228.419642  L 60.334436 231.308663  L 61.449556 234.000802  L 63.223457 236.312594  L 83.365203 258.016381  L 84.752278 259.080721  L 96.682802 266.017991  L 98.298085 266.687063  L 127.500289 271.303205  L 130.38931 271.683552  L 133.27833 271.303205  L 135.970469 270.188085  L 138.282261 268.414184  L 140.056161 266.102392  L 141.171282 263.410254  z "
           style="fill:#fde725;fill-opacity:0.5;stroke:#000000;stroke-width:2;"
           id="path858" />
      </g>
      <g
         id="PolyCollection_2">
        <path
           clip-path="url(#p3dcdc10251)"
           d="M 88.917588 211.04643  L 88.841518 210.468625  L 88.618494 209.930198  L 88.263714 209.467839  L 87.801356 209.113059  L 87.262928 208.890035  L 86.685124 208.813966  L 86.10732 208.890035  L 85.568892 209.113059  L 85.106533 209.467839  L 84.751753 209.930198  L 84.528729 210.468625  L 84.45266 211.04643  L 84.528729 211.624234  L 84.751753 212.162661  L 85.106533 212.62502  L 85.568892 212.9798  L 86.10732 213.202824  L 86.685124 213.278893  L 87.262928 213.202824  L 87.801356 212.9798  L 88.263714 212.62502  L 88.618494 212.162661  L 88.841518 211.624234  z "
           id="path861" />
        <path
           clip-path="url(#p3dcdc10251)"
           d="M 58.496382 166.932047  L 58.420313 166.354243  L 58.197289 165.815815  L 57.842509 165.353457  L 57.38015 164.998677  L 56.841723 164.775653  L 56.263919 164.699583  L 55.686114 164.775653  L 55.147687 164.998677  L 54.685328 165.353457  L 54.330548 165.815815  L 54.107524 166.354243  L 54.031455 166.932047  L 54.107524 167.509851  L 54.330548 168.048279  L 54.685328 168.510637  L 55.147687 168.865417  L 55.686114 169.088441  L 56.263919 169.164511  L 56.841723 169.088441  L 57.38015 168.865417  L 57.842509 168.510637  L 58.197289 168.048279  L 58.420313 167.509851  z "
           id="path863" />
        <path
           clip-path="url(#p3dcdc10251)"
           d="M 53.435458 174.237849  L 53.359388 173.660045  L 53.136364 173.121617  L 52.781584 172.659259  L 52.319226 172.304479  L 51.780798 172.081454  L 51.202994 172.005385  L 50.62519 172.081454  L 50.086762 172.304479  L 49.624404 172.659259  L 49.269624 173.121617  L 49.046599 173.660045  L 48.97053 174.237849  L 49.046599 174.815653  L 49.269624 175.354081  L 49.624404 175.816439  L 50.086762 176.171219  L 50.62519 176.394243  L 51.202994 176.470313  L 51.780798 176.394243  L 52.319226 176.171219  L 52.781584 175.816439  L 53.136364 175.354081  L 53.359388 174.815653  z "
           id="path865" />
        <path
           clip-path="url(#p3dcdc10251)"
           d="M 27.585459 196.04752  L 27.50939 195.469716  L 27.286366 194.931288  L 26.931586 194.46893  L 26.469228 194.114149  L 25.9308 193.891125  L 25.352996 193.815056  L 24.775191 193.891125  L 24.236764 194.114149  L 23.774405 194.46893  L 23.419625 194.931288  L 23.196601 195.469716  L 23.120532 196.04752  L 23.196601 196.625324  L 23.419625 197.163752  L 23.774405 197.62611  L 24.236764 197.98089  L 24.775191 198.203914  L 25.352996 198.279984  L 25.9308 198.203914  L 26.469228 197.98089  L 26.931586 197.62611  L 27.286366 197.163752  L 27.50939 196.625324  z "
           id="path867" />
        <path
           clip-path="url(#p3dcdc10251)"
           d="M 36.527641 194.913195  L 36.451572 194.335391  L 36.228547 193.796963  L 35.873767 193.334604  L 35.411409 192.979824  L 34.872981 192.7568  L 34.295177 192.680731  L 33.717373 192.7568  L 33.178945 192.979824  L 32.716587 193.334604  L 32.361807 193.796963  L 32.138783 194.335391  L 32.062713 194.913195  L 32.138783 195.490999  L 32.361807 196.029427  L 32.716587 196.491785  L 33.178945 196.846565  L 33.717373 197.069589  L 34.295177 197.145658  L 34.872981 197.069589  L 35.411409 196.846565  L 35.873767 196.491785  L 36.228547 196.029427  L 36.451572 195.490999  z "
           id="path869" />
        <path
           clip-path="url(#p3dcdc10251)"
           d="M 73.348872 228.419642  L 73.272802 227.841838  L 73.049778 227.303411  L 72.694998 226.841052  L 72.23264 226.486272  L 71.694212 226.263248  L 71.116408 226.187179  L 70.538604 226.263248  L 70.000176 226.486272  L 69.537818 226.841052  L 69.183038 227.303411  L 68.960013 227.841838  L 68.883944 228.419642  L 68.960013 228.997447  L 69.183038 229.535874  L 69.537818 229.998233  L 70.000176 230.353013  L 70.538604 230.576037  L 71.116408 230.652106  L 71.694212 230.576037  L 72.23264 230.353013  L 72.694998 229.998233  L 73.049778 229.535874  L 73.272802 228.997447  z "
           id="path871" />
        <path
           clip-path="url(#p3dcdc10251)"
           d="M 139.129186 237.763699  L 139.053117 237.185895  L 138.830093 236.647467  L 138.475313 236.185109  L 138.012954 235.830329  L 137.474527 235.607305  L 136.896722 235.531235  L 136.318918 235.607305  L 135.780491 235.830329  L 135.318132 236.185109  L 134.963352 236.647467  L 134.740328 237.185895  L 134.664259 237.763699  L 134.740328 238.341503  L 134.963352 238.879931  L 135.318132 239.342289  L 135.780491 239.69707  L 136.318918 239.920094  L 136.896722 239.996163  L 137.474527 239.920094  L 138.012954 239.69707  L 138.475313 239.342289  L 138.830093 238.879931  L 139.053117 238.341503  z "
           id="path873" />
        <path
           clip-path="url(#p3dcdc10251)"
           d="M 194.188559 242.065561  L 194.11249 241.487757  L 193.889466 240.949329  L 193.534686 240.486971  L 193.072327 240.13219  L 192.533899 239.909166  L 191.956095 239.833097  L 191.378291 239.909166  L 190.839863 240.13219  L 190.377505 240.486971  L 190.022725 240.949329  L 189.799701 241.487757  L 189.723632 242.065561  L 189.799701 242.643365  L 190.022725 243.181793  L 190.377505 243.644151  L 190.839863 243.998931  L 191.378291 244.221955  L 191.956095 244.298025  L 192.533899 244.221955  L 193.072327 243.998931  L 193.534686 243.644151  L 193.889466 243.181793  L 194.11249 242.643365  z "
           id="path875" />
        <path
           clip-path="url(#p3dcdc10251)"
           d="M 187.732434 248.154432  L 187.656365 247.576628  L 187.433341 247.0382  L 187.078561 246.575842  L 186.616202 246.221062  L 186.077775 245.998038  L 185.49997 245.921968  L 184.922166 245.998038  L 184.383738 246.221062  L 183.92138 246.575842  L 183.5666 247.0382  L 183.343576 247.576628  L 183.267507 248.154432  L 183.343576 248.732236  L 183.5666 249.270664  L 183.92138 249.733022  L 184.383738 250.087802  L 184.922166 250.310826  L 185.49997 250.386896  L 186.077775 250.310826  L 186.616202 250.087802  L 187.078561 249.733022  L 187.433341 249.270664  L 187.656365 248.732236  z "
           id="path877" />
        <path
           clip-path="url(#p3dcdc10251)"
           d="M 132.621773 260.521233  L 132.545704 259.943429  L 132.32268 259.405001  L 131.9679 258.942643  L 131.505542 258.587863  L 130.967114 258.364839  L 130.38931 258.288769  L 129.811506 258.364839  L 129.273078 258.587863  L 128.810719 258.942643  L 128.455939 259.405001  L 128.232915 259.943429  L 128.156846 260.521233  L 128.232915 261.099037  L 128.455939 261.637465  L 128.810719 262.099823  L 129.273078 262.454603  L 129.811506 262.677627  L 130.38931 262.753697  L 130.967114 262.677627  L 131.505542 262.454603  L 131.9679 262.099823  L 132.32268 261.637465  L 132.545704 261.099037  z "
           id="path879" />
        <path
           clip-path="url(#p3dcdc10251)"
           d="M 183.947732 282.347953  L 183.871662 281.770149  L 183.648638 281.231721  L 183.293858 280.769363  L 182.8315 280.414583  L 182.293072 280.191559  L 181.715268 280.115489  L 181.137464 280.191559  L 180.599036 280.414583  L 180.136678 280.769363  L 179.781898 281.231721  L 179.558874 281.770149  L 179.482804 282.347953  L 179.558874 282.925757  L 179.781898 283.464185  L 180.136678 283.926543  L 180.599036 284.281323  L 181.137464 284.504347  L 181.715268 284.580417  L 182.293072 284.504347  L 182.8315 284.281323  L 183.293858 283.926543  L 183.648638 283.464185  L 183.871662 282.925757  z "
           id="path881" />
        <path
           clip-path="url(#p3dcdc10251)"
           d="M 180.237714 274.154317  L 180.161645 273.576513  L 179.938621 273.038085  L 179.58384 272.575727  L 179.121482 272.220946  L 178.583054 271.997922  L 178.00525 271.921853  L 177.427446 271.997922  L 176.889018 272.220946  L 176.42666 272.575727  L 176.07188 273.038085  L 175.848856 273.576513  L 175.772786 274.154317  L 175.848856 274.732121  L 176.07188 275.270549  L 176.42666 275.732907  L 176.889018 276.087687  L 177.427446 276.310711  L 178.00525 276.386781  L 178.583054 276.310711  L 179.121482 276.087687  L 179.58384 275.732907  L 179.938621 275.270549  L 180.161645 274.732121  z "
           id="path883" />
        <path
           clip-path="url(#p3dcdc10251)"
           d="M 102.263961 260.21788  L 102.187892 259.640075  L 101.964868 259.101648  L 101.610088 258.639289  L 101.147729 258.284509  L 100.609302 258.061485  L 100.031497 257.985416  L 99.453693 258.061485  L 98.915266 258.284509  L 98.452907 258.639289  L 98.098127 259.101648  L 97.875103 259.640075  L 97.799034 260.21788  L 97.875103 260.795684  L 98.098127 261.334112  L 98.452907 261.79647  L 98.915266 262.15125  L 99.453693 262.374274  L 100.031497 262.450343  L 100.609302 262.374274  L 101.147729 262.15125  L 101.610088 261.79647  L 101.964868 261.334112  L 102.187892 260.795684  z "
           id="path885" />
        <path
           clip-path="url(#p3dcdc10251)"
           d="M 90.333437 253.28061  L 90.257368 252.702806  L 90.034344 252.164378  L 89.679564 251.70202  L 89.217206 251.34724  L 88.678778 251.124216  L 88.100974 251.048146  L 87.523169 251.124216  L 86.984742 251.34724  L 86.522383 251.70202  L 86.167603 252.164378  L 85.944579 252.702806  L 85.86851 253.28061  L 85.944579 253.858414  L 86.167603 254.396842  L 86.522383 254.8592  L 86.984742 255.21398  L 87.523169 255.437004  L 88.100974 255.513074  L 88.678778 255.437004  L 89.217206 255.21398  L 89.679564 254.8592  L 90.034344 254.396842  L 90.257368 253.858414  z "
           id="path887" />
      </g>
    </g>
    <g
       id="axes_2">
      <g
         id="PolyCollection_3">
        <path
           clip-path="url(#p715e0bf4f2)"
           d="M 299.754828 160.234656  L 298.021415 160.462864  L 296.406132 161.131936  L 295.019057 162.196276  L 293.954717 163.583351  L 288.893792 170.889153  L 288.22472 172.504436  L 287.996512 174.237849  L 288.22472 175.971261  L 288.893792 177.586545  L 289.958132 178.97362  L 325.440262 215.7822  L 326.827337 216.846541  L 328.44262 217.515613  L 330.176033 217.743821  L 331.909445 217.515613  L 333.524729 216.846541  L 334.911804 215.7822  L 335.976144 214.395125  L 336.645216 212.779842  L 336.873424 211.04643  L 336.645216 209.313017  L 335.976144 207.697734  L 305.554939 163.583351  L 304.490599 162.196276  L 303.103523 161.131936  L 301.48824 160.462864  z "
           style="fill:#3b528b;fill-opacity:0.5;stroke:#000000;stroke-width:2;"
           id="path891" />
        <path
           clip-path="url(#p715e0bf4f2)"
           d="M 267.110492 189.578337  L 265.495209 190.247409  L 264.108134 191.311749  L 263.043794 192.698824  L 262.374721 194.314107  L 262.146513 196.04752  L 262.374721 197.780932  L 263.043794 199.396216  L 264.108134 200.783291  L 265.495209 201.847631  L 311.258621 234.219754  L 312.873905 234.888826  L 314.607317 235.117034  L 316.340729 234.888826  L 317.956013 234.219754  L 319.343088 233.155413  L 320.407428 231.768338  L 321.0765 230.153055  L 321.304708 228.419642  L 321.0765 226.68623  L 320.407428 225.070947  L 319.343088 223.683872  L 282.521857 190.177424  L 281.134782 189.113084  L 279.519499 188.444011  L 277.786086 188.215803  L 268.843905 189.350128  z "
           style="fill:#3b528b;fill-opacity:0.5;stroke:#000000;stroke-width:2;"
           id="path893" />
        <path
           clip-path="url(#p715e0bf4f2)"
           d="M 261.110423 200.512447  L 262.529544 202.361881  L 264.378977 203.781001  L 266.532688 204.673098  L 268.843905 204.977375  L 277.786086 203.84305  L 280.097303 203.538772  L 282.251014 202.646676  L 284.100447 201.227556  L 301.008264 180.55221  L 302.427384 178.702776  L 307.488309 171.396974  L 308.380405 169.243264  L 308.684683 166.932047  L 308.380405 164.62083  L 307.488309 162.467119  L 306.069189 160.617686  L 304.219755 159.198566  L 302.066044 158.306469  L 299.754828 158.002192  L 297.443611 158.306469  L 295.2899 159.198566  L 293.440467 160.617686  L 262.529544 189.733159  L 261.110423 191.582592  L 260.218327 193.736303  L 259.91405 196.04752  L 260.218327 198.358736  z "
           style="fill:#21918c;fill-opacity:0.5;stroke:#000000;stroke-width:2;"
           id="path895" />
        <path
           clip-path="url(#p715e0bf4f2)"
           d="M 305.677462 228.419642  L 305.981739 230.730859  L 306.873836 232.88457  L 308.292956 234.734004  L 310.142389 236.153124  L 312.2961 237.04522  L 314.607317 237.349498  L 316.918534 237.04522  L 319.072245 236.153124  L 320.921678 234.734004  L 336.490394 217.360791  L 337.909514 215.511357  L 338.801611 213.357646  L 339.105888 211.04643  L 338.801611 208.735213  L 337.909514 206.581502  L 336.490394 204.732068  L 334.64096 203.312948  L 332.487249 202.420852  L 330.176033 202.116574  L 327.864816 202.420852  L 325.711105 203.312948  L 323.861672 204.732068  L 308.292956 222.105281  L 306.873836 223.954715  L 305.981739 226.108426  z "
           style="fill:#440154;fill-opacity:0.5;stroke:#000000;stroke-width:2;"
           id="path897" />
        <path
           clip-path="url(#p715e0bf4f2)"
           d="M 427.257467 254.623615  L 428.990879 254.851823  L 430.724292 254.623615  L 432.339575 253.954543  L 433.72665 252.890203  L 440.182775 246.801332  L 441.247115 245.414256  L 441.916188 243.798973  L 442.144396 242.065561  L 441.916188 240.332148  L 441.247115 238.716865  L 440.182775 237.32979  L 438.7957 236.26545  L 437.180417 235.596378  L 435.447004 235.368169  L 380.387632 231.066308  L 378.654219 231.294516  L 377.038936 231.963588  L 375.651861 233.027928  L 374.587521 234.415004  L 373.918448 236.030287  L 373.69024 237.763699  L 373.918448 239.497112  L 374.587521 241.112395  L 375.651861 242.49947  L 377.038936 243.56381  L 378.654219 244.232882  z "
           style="fill:#3b528b;fill-opacity:0.5;stroke:#000000;stroke-width:2;"
           id="path899" />
        <path
           clip-path="url(#p715e0bf4f2)"
           d="M 375.613631 254.05205  L 373.880219 253.823842  L 372.146806 254.05205  L 370.531523 254.721122  L 369.144448 255.785462  L 368.080108 257.172537  L 367.411036 258.787821  L 367.182827 260.521233  L 367.411036 262.254645  L 368.080108 263.869929  L 369.144448 265.257004  L 370.531523 266.321344  L 421.857481 288.148064  L 423.472765 288.817136  L 425.206177 289.045344  L 426.93959 288.817136  L 428.554873 288.148064  L 429.941948 287.083724  L 431.006288 285.696649  L 431.67536 284.081366  L 431.903568 282.347953  L 431.67536 280.614541  L 431.006288 278.999257  L 427.29627 270.805621  L 426.23193 269.418546  L 424.844855 268.354206  L 423.229572 267.685134  z "
           style="fill:#3b528b;fill-opacity:0.5;stroke:#000000;stroke-width:2;"
           id="path901" />
        <path
           clip-path="url(#p715e0bf4f2)"
           d="M 412.566304 274.154317  L 412.870582 276.465533  L 413.762678 278.619244  L 417.472696 286.812881  L 418.891816 288.662314  L 420.74125 290.081434  L 422.894961 290.973531  L 425.206177 291.277808  L 427.517394 290.973531  L 429.671105 290.081434  L 431.520538 288.662314  L 432.939659 286.812881  L 433.831755 284.65917  L 444.072582 244.376777  L 444.37686 242.065561  L 444.072582 239.754344  L 443.180486 237.600633  L 441.761365 235.7512  L 439.911932 234.332079  L 437.758221 233.439983  L 435.447004 233.135706  L 433.135788 233.439983  L 430.982077 234.332079  L 429.132643 235.7512  L 422.676518 241.840071  L 421.257398 243.689504  L 420.365302 245.843215  L 412.870582 271.8431  z "
           style="fill:#21918c;fill-opacity:0.5;stroke:#000000;stroke-width:2;"
           id="path903" />
        <path
           clip-path="url(#p715e0bf4f2)"
           d="M 366.146737 264.986161  L 367.565858 266.835594  L 369.415291 268.254714  L 371.569002 269.146811  L 373.880219 269.451088  L 376.191435 269.146811  L 378.345146 268.254714  L 380.19458 266.835594  L 381.6137 264.986161  L 382.505796 262.83245  L 389.013209 240.074916  L 389.317487 237.763699  L 389.013209 235.452483  L 388.121113 233.298772  L 386.701993 231.449338  L 384.852559 230.030218  L 382.698848 229.138121  L 380.387632 228.833844  L 378.076415 229.138121  L 375.922704 230.030218  L 374.07327 231.449338  L 372.65415 233.298772  L 371.762054 235.452483  L 365.254641 258.210016  L 364.950364 260.521233  L 365.254641 262.83245  z "
           style="fill:#440154;fill-opacity:0.5;stroke:#000000;stroke-width:2;"
           id="path905" />
        <path
           clip-path="url(#p715e0bf4f2)"
           d="M 391.169604 240.65272  L 391.54995 237.763699  L 391.169604 234.874678  L 390.054483 232.18254  L 388.280583 229.870748  L 385.968791 228.096847  L 335.757192 201.379578  L 333.065054 200.264457  L 330.176033 199.884111  L 327.287012 200.264457  L 324.594873 201.379578  L 322.283081 203.153478  L 306.714366 220.526691  L 304.940465 222.838483  L 303.825345 225.530622  L 303.444998 228.419642  L 303.825345 231.308663  L 304.940465 234.000802  L 306.714366 236.312594  L 326.856112 258.016381  L 328.243187 259.080721  L 340.173711 266.017991  L 341.788994 266.687063  L 370.991198 271.303205  L 373.880219 271.683552  L 376.76924 271.303205  L 379.461378 270.188085  L 381.77317 268.414184  L 383.547071 266.102392  L 384.662191 263.410254  z "
           style="fill:#fde725;fill-opacity:0.5;stroke:#000000;stroke-width:2;"
           id="path907" />
      </g>
      <g
         id="PolyCollection_4">
        <path
           clip-path="url(#p715e0bf4f2)"
           d="M 332.408497 211.04643  L 332.332427 210.468625  L 332.109403 209.930198  L 331.754623 209.467839  L 331.292265 209.113059  L 330.753837 208.890035  L 330.176033 208.813966  L 329.598229 208.890035  L 329.059801 209.113059  L 328.597443 209.467839  L 328.242662 209.930198  L 328.019638 210.468625  L 327.943569 211.04643  L 328.019638 211.624234  L 328.242662 212.162661  L 328.597443 212.62502  L 329.059801 212.9798  L 329.598229 213.202824  L 330.176033 213.278893  L 330.753837 213.202824  L 331.292265 212.9798  L 331.754623 212.62502  L 332.109403 212.162661  L 332.332427 211.624234  z "
           id="path910" />
        <path
           clip-path="url(#p715e0bf4f2)"
           d="M 301.987291 166.932047  L 301.911222 166.354243  L 301.688198 165.815815  L 301.333418 165.353457  L 300.87106 164.998677  L 300.332632 164.775653  L 299.754828 164.699583  L 299.177024 164.775653  L 298.638596 164.998677  L 298.176237 165.353457  L 297.821457 165.815815  L 297.598433 166.354243  L 297.522364 166.932047  L 297.598433 167.509851  L 297.821457 168.048279  L 298.176237 168.510637  L 298.638596 168.865417  L 299.177024 169.088441  L 299.754828 169.164511  L 300.332632 169.088441  L 300.87106 168.865417  L 301.333418 168.510637  L 301.688198 168.048279  L 301.911222 167.509851  z "
           id="path912" />
        <path
           clip-path="url(#p715e0bf4f2)"
           d="M 296.926367 174.237849  L 296.850297 173.660045  L 296.627273 173.121617  L 296.272493 172.659259  L 295.810135 172.304479  L 295.271707 172.081454  L 294.693903 172.005385  L 294.116099 172.081454  L 293.577671 172.304479  L 293.115313 172.659259  L 292.760533 173.121617  L 292.537509 173.660045  L 292.461439 174.237849  L 292.537509 174.815653  L 292.760533 175.354081  L 293.115313 175.816439  L 293.577671 176.171219  L 294.116099 176.394243  L 294.693903 176.470313  L 295.271707 176.394243  L 295.810135 176.171219  L 296.272493 175.816439  L 296.627273 175.354081  L 296.850297 174.815653  z "
           id="path914" />
        <path
           clip-path="url(#p715e0bf4f2)"
           d="M 271.076368 196.04752  L 271.000299 195.469716  L 270.777275 194.931288  L 270.422495 194.46893  L 269.960137 194.114149  L 269.421709 193.891125  L 268.843905 193.815056  L 268.266101 193.891125  L 267.727673 194.114149  L 267.265314 194.46893  L 266.910534 194.931288  L 266.68751 195.469716  L 266.611441 196.04752  L 266.68751 196.625324  L 266.910534 197.163752  L 267.265314 197.62611  L 267.727673 197.98089  L 268.266101 198.203914  L 268.843905 198.279984  L 269.421709 198.203914  L 269.960137 197.98089  L 270.422495 197.62611  L 270.777275 197.163752  L 271.000299 196.625324  z "
           id="path916" />
        <path
           clip-path="url(#p715e0bf4f2)"
           d="M 280.01855 194.913195  L 279.942481 194.335391  L 279.719457 193.796963  L 279.364676 193.334604  L 278.902318 192.979824  L 278.36389 192.7568  L 277.786086 192.680731  L 277.208282 192.7568  L 276.669854 192.979824  L 276.207496 193.334604  L 275.852716 193.796963  L 275.629692 194.335391  L 275.553622 194.913195  L 275.629692 195.490999  L 275.852716 196.029427  L 276.207496 196.491785  L 276.669854 196.846565  L 277.208282 197.069589  L 277.786086 197.145658  L 278.36389 197.069589  L 278.902318 196.846565  L 279.364676 196.491785  L 279.719457 196.029427  L 279.942481 195.490999  z "
           id="path918" />
        <path
           clip-path="url(#p715e0bf4f2)"
           d="M 316.839781 228.419642  L 316.763711 227.841838  L 316.540687 227.303411  L 316.185907 226.841052  L 315.723549 226.486272  L 315.185121 226.263248  L 314.607317 226.187179  L 314.029513 226.263248  L 313.491085 226.486272  L 313.028727 226.841052  L 312.673947 227.303411  L 312.450923 227.841838  L 312.374853 228.419642  L 312.450923 228.997447  L 312.673947 229.535874  L 313.028727 229.998233  L 313.491085 230.353013  L 314.029513 230.576037  L 314.607317 230.652106  L 315.185121 230.576037  L 315.723549 230.353013  L 316.185907 229.998233  L 316.540687 229.535874  L 316.763711 228.997447  z "
           id="path920" />
        <path
           clip-path="url(#p715e0bf4f2)"
           d="M 382.620095 237.763699  L 382.544026 237.185895  L 382.321002 236.647467  L 381.966222 236.185109  L 381.503863 235.830329  L 380.965436 235.607305  L 380.387632 235.531235  L 379.809827 235.607305  L 379.2714 235.830329  L 378.809041 236.185109  L 378.454261 236.647467  L 378.231237 237.185895  L 378.155168 237.763699  L 378.231237 238.341503  L 378.454261 238.879931  L 378.809041 239.342289  L 379.2714 239.69707  L 379.809827 239.920094  L 380.387632 239.996163  L 380.965436 239.920094  L 381.503863 239.69707  L 381.966222 239.342289  L 382.321002 238.879931  L 382.544026 238.341503  z "
           id="path922" />
        <path
           clip-path="url(#p715e0bf4f2)"
           d="M 437.679468 242.065561  L 437.603399 241.487757  L 437.380375 240.949329  L 437.025595 240.486971  L 436.563236 240.13219  L 436.024809 239.909166  L 435.447004 239.833097  L 434.8692 239.909166  L 434.330772 240.13219  L 433.868414 240.486971  L 433.513634 240.949329  L 433.29061 241.487757  L 433.214541 242.065561  L 433.29061 242.643365  L 433.513634 243.181793  L 433.868414 243.644151  L 434.330772 243.998931  L 434.8692 244.221955  L 435.447004 244.298025  L 436.024809 244.221955  L 436.563236 243.998931  L 437.025595 243.644151  L 437.380375 243.181793  L 437.603399 242.643365  z "
           id="path924" />
        <path
           clip-path="url(#p715e0bf4f2)"
           d="M 431.223343 248.154432  L 431.147274 247.576628  L 430.92425 247.0382  L 430.56947 246.575842  L 430.107111 246.221062  L 429.568684 245.998038  L 428.990879 245.921968  L 428.413075 245.998038  L 427.874648 246.221062  L 427.412289 246.575842  L 427.057509 247.0382  L 426.834485 247.576628  L 426.758416 248.154432  L 426.834485 248.732236  L 427.057509 249.270664  L 427.412289 249.733022  L 427.874648 250.087802  L 428.413075 250.310826  L 428.990879 250.386896  L 429.568684 250.310826  L 430.107111 250.087802  L 430.56947 249.733022  L 430.92425 249.270664  L 431.147274 248.732236  z "
           id="path926" />
        <path
           clip-path="url(#p715e0bf4f2)"
           d="M 376.112683 260.521233  L 376.036613 259.943429  L 375.813589 259.405001  L 375.458809 258.942643  L 374.996451 258.587863  L 374.458023 258.364839  L 373.880219 258.288769  L 373.302415 258.364839  L 372.763987 258.587863  L 372.301629 258.942643  L 371.946848 259.405001  L 371.723824 259.943429  L 371.647755 260.521233  L 371.723824 261.099037  L 371.946848 261.637465  L 372.301629 262.099823  L 372.763987 262.454603  L 373.302415 262.677627  L 373.880219 262.753697  L 374.458023 262.677627  L 374.996451 262.454603  L 375.458809 262.099823  L 375.813589 261.637465  L 376.036613 261.099037  z "
           id="path928" />
        <path
           clip-path="url(#p715e0bf4f2)"
           d="M 427.438641 282.347953  L 427.362572 281.770149  L 427.139547 281.231721  L 426.784767 280.769363  L 426.322409 280.414583  L 425.783981 280.191559  L 425.206177 280.115489  L 424.628373 280.191559  L 424.089945 280.414583  L 423.627587 280.769363  L 423.272807 281.231721  L 423.049783 281.770149  L 422.973713 282.347953  L 423.049783 282.925757  L 423.272807 283.464185  L 423.627587 283.926543  L 424.089945 284.281323  L 424.628373 284.504347  L 425.206177 284.580417  L 425.783981 284.504347  L 426.322409 284.281323  L 426.784767 283.926543  L 427.139547 283.464185  L 427.362572 282.925757  z "
           id="path930" />
        <path
           clip-path="url(#p715e0bf4f2)"
           d="M 423.728623 274.154317  L 423.652554 273.576513  L 423.42953 273.038085  L 423.07475 272.575727  L 422.612391 272.220946  L 422.073963 271.997922  L 421.496159 271.921853  L 420.918355 271.997922  L 420.379927 272.220946  L 419.917569 272.575727  L 419.562789 273.038085  L 419.339765 273.576513  L 419.263695 274.154317  L 419.339765 274.732121  L 419.562789 275.270549  L 419.917569 275.732907  L 420.379927 276.087687  L 420.918355 276.310711  L 421.496159 276.386781  L 422.073963 276.310711  L 422.612391 276.087687  L 423.07475 275.732907  L 423.42953 275.270549  L 423.652554 274.732121  z "
           id="path932" />
        <path
           clip-path="url(#p715e0bf4f2)"
           d="M 345.75487 260.21788  L 345.678801 259.640075  L 345.455777 259.101648  L 345.100997 258.639289  L 344.638638 258.284509  L 344.100211 258.061485  L 343.522407 257.985416  L 342.944602 258.061485  L 342.406175 258.284509  L 341.943816 258.639289  L 341.589036 259.101648  L 341.366012 259.640075  L 341.289943 260.21788  L 341.366012 260.795684  L 341.589036 261.334112  L 341.943816 261.79647  L 342.406175 262.15125  L 342.944602 262.374274  L 343.522407 262.450343  L 344.100211 262.374274  L 344.638638 262.15125  L 345.100997 261.79647  L 345.455777 261.334112  L 345.678801 260.795684  z "
           id="path934" />
        <path
           clip-path="url(#p715e0bf4f2)"
           d="M 333.824346 253.28061  L 333.748277 252.702806  L 333.525253 252.164378  L 333.170473 251.70202  L 332.708115 251.34724  L 332.169687 251.124216  L 331.591883 251.048146  L 331.014079 251.124216  L 330.475651 251.34724  L 330.013292 251.70202  L 329.658512 252.164378  L 329.435488 252.702806  L 329.359419 253.28061  L 329.435488 253.858414  L 329.658512 254.396842  L 330.013292 254.8592  L 330.475651 255.21398  L 331.014079 255.437004  L 331.591883 255.513074  L 332.169687 255.437004  L 332.708115 255.21398  L 333.170473 254.8592  L 333.525253 254.396842  L 333.748277 253.858414  z "
           id="path936" />
      </g>
    </g>
  </g>
  <defs
     id="defs947">
    <clipPath
       id="p3dcdc10251">
      <rect
         height="434.88"
         width="202.909091"
         x="7.2"
         y="7.2"
         id="rect941" />
    </clipPath>
    <clipPath
       id="p715e0bf4f2">
      <rect
         height="434.88"
         width="202.909091"
         x="250.690909"
         y="7.2"
         id="rect944" />
    </clipPath>
  </defs>
  <ellipse
     style="fill:none;stroke:#000000;stroke-width:0.75092233;stroke-linecap:round;stroke-dasharray:2.25276698,2.25276698;stroke-miterlimit:4;stroke-dashoffset:0"
     id="path953"
     cx="191.20821"
     cy="156.30211"
     rx="122.81085"
     ry="67.559326"
     transform="matrix(0.89697965,0.44207184,-0.37817364,0.92573468,0,0)" />
  <ellipse
     style="fill:none;stroke:#000000;stroke-width:0.75098762;stroke-linecap:round;stroke-dasharray:2.25296286,2.25296286;stroke-miterlimit:4;stroke-dashoffset:0"
     id="ellipse955"
     cx="410.74445"
     cy="46.894859"
     rx="118.63699"
     ry="65.404167"
     transform="matrix(0.8964067,0.44323248,-0.37711778,0.92616531,0,0)" />
  <ellipse
     style="fill:none;stroke:#000000;stroke-width:0.75405517;stroke-linecap:round;stroke-dasharray:2.26216552,2.26216552;stroke-miterlimit:4;stroke-dashoffset:0"
     id="ellipse957"
     cx="181.00563"
     cy="157.16264"
     rx="57.469074"
     ry="33.817085"
     transform="matrix(0.87766548,0.47927373,-0.34592685,0.93826149,0,0)" />
  <ellipse
     style="fill:none;stroke:#000000;stroke-width:0.76634922;stroke-linecap:round;stroke-dasharray:2.29904767,2.29904767;stroke-miterlimit:4;stroke-dashoffset:0"
     id="ellipse970"
     cx="358.70776"
     cy="-0.57108986"
     rx="51.880646"
     ry="34.541454"
     transform="matrix(0.8331297,0.55307766,-0.29022484,0.95695849,0,0)" />
  <ellipse
     style="fill:none;stroke:#000000;stroke-width:0.76380009;stroke-linecap:round;stroke-dasharray:2.29140027,2.29140027;stroke-miterlimit:4;stroke-dashoffset:0"
     id="ellipse972"
     cx="361.38998"
     cy="233.6662"
     rx="49.317471"
     ry="38.271759"
     transform="matrix(0.99755068,0.06994744,0.19711584,0.9803802,0,0)" />
  <text
     xml:space="preserve"
     style="font-size:15px;line-height:1.25;font-family:'Helvetica Neue';-inkscape-font-specification:'Helvetica Neue';stroke-width:0.75"
     x="7.9929333"
     y="325.29276"
     id="text1024"><tspan
       sodipodi:role="line"
       id="tspan1022"
       x="7.9929333"
       y="325.29276"
       style="font-size:15px;stroke-width:0.75">1-core = 2-core = 3-core = 4-core</tspan></text>
  <text
     xml:space="preserve"
     style="font-size:18px;line-height:1.25;font-family:'Helvetica Neue';-inkscape-font-specification:'Helvetica Neue';stroke-width:0.75"
     x="102.69199"
     y="193.94913"
     id="text1028"><tspan
       sodipodi:role="line"
       id="tspan1026"
       x="102.69199"
       y="193.94913"
       style="font-size:15px;stroke-width:0.75">5-core</tspan></text>
  <text
     xml:space="preserve"
     style="font-size:15px;line-height:1.25;font-family:'Helvetica Neue';-inkscape-font-specification:'Helvetica Neue';stroke-width:0.75"
     x="374.35086"
     y="322.2738"
     id="text1032"><tspan
       sodipodi:role="line"
       id="tspan1030"
       x="374.35086"
       y="322.2738"
       style="font-size:15px;stroke-width:0.75">1-core</tspan></text>
  <text
     xml:space="preserve"
     style="font-size:18px;line-height:1.25;font-family:'Helvetica Neue';-inkscape-font-specification:'Helvetica Neue';stroke-width:0.75"
     x="325.29276"
     y="175.85434"
     id="text1036"><tspan
       sodipodi:role="line"
       id="tspan1034"
       x="325.29276"
       y="175.85434"
       style="font-size:15px;stroke-width:0.75">2-core</tspan></text>
  <text
     xml:space="preserve"
     style="font-size:18px;line-height:1.25;font-family:'Helvetica Neue';-inkscape-font-specification:'Helvetica Neue';stroke-width:0.75"
     x="378.12454"
     y="213.59132"
     id="text1040"><tspan
       sodipodi:role="line"
       id="tspan1038"
       x="378.12454"
       y="213.59132"
       style="font-size:15px;stroke-width:0.75">2-core</tspan></text>
  <rect
     style="fill:none;stroke:#000000;stroke-width:0.733265;stroke-linecap:round;stroke-miterlimit:4;stroke-dasharray:2.1998, 2.1998;stroke-dashoffset:0"
     id="rect1042"
     width="239.2692"
     height="201.53221"
     x="-2.3105044"
     y="135.06158" />
  <rect
     style="fill:none;stroke:#000000;stroke-width:0.720876;stroke-linecap:round;stroke-miterlimit:4;stroke-dasharray:2.16263, 2.16263;stroke-dashoffset:0"
     id="rect1044"
     width="228.70197"
     height="203.77969"
     x="236.95032"
     y="132.80574" />
  <text
     xml:space="preserve"
     style="font-size:18px;line-height:1.25;font-family:'Helvetica Neue';-inkscape-font-specification:'Helvetica Neue';stroke-width:0.75"
     x="10.566353"
     y="356.23709"
     id="text1048"><tspan
       sodipodi:role="line"
       id="tspan1046"
       x="10.566353"
       y="356.23709"
       style="font-style:normal;font-variant:normal;font-weight:normal;font-stretch:normal;font-family:'Times New Roman';-inkscape-font-specification:'Times New Roman, ';stroke-width:0.75">nbr-based core-decomposition</tspan></text>
  <text
     xml:space="preserve"
     style="font-size:18px;line-height:1.25;font-family:'Helvetica Neue';-inkscape-font-specification:'Helvetica Neue';stroke-width:0.75"
     x="243.7809"
     y="357.00131"
     id="text1052"><tspan
       sodipodi:role="line"
       id="tspan1050"
       x="243.7809"
       y="357.00131"
       style="font-style:normal;font-variant:normal;font-weight:normal;font-stretch:normal;font-family:'Times New Roman';-inkscape-font-specification:'Times New Roman, ';stroke-width:0.75">deg-based core-decomposition</tspan></text>
</svg>
