<?xml version="1.0" encoding="utf-8" standalone="no"?>
<!DOCTYPE svg PUBLIC "-//W3C//DTD SVG 1.1//EN"
  "http://www.w3.org/Graphics/SVG/1.1/DTD/svg11.dtd">
<!-- Created with matplotlib (https://matplotlib.org/) -->
<svg height="449.28pt" version="1.1" viewBox="0 0 460.8 449.28" width="460.8pt" xmlns="http://www.w3.org/2000/svg" xmlns:xlink="http://www.w3.org/1999/xlink">
 <metadata>
  <rdf:RDF xmlns:cc="http://creativecommons.org/ns#" xmlns:dc="http://purl.org/dc/elements/1.1/" xmlns:rdf="http://www.w3.org/1999/02/22-rdf-syntax-ns#">
   <cc:Work>
    <dc:type rdf:resource="http://purl.org/dc/dcmitype/StillImage"/>
    <dc:date>2021-06-24T00:20:49.731258</dc:date>
    <dc:format>image/svg+xml</dc:format>
    <dc:creator>
     <cc:Agent>
      <dc:title>Matplotlib v3.3.4, https://matplotlib.org/</dc:title>
     </cc:Agent>
    </dc:creator>
   </cc:Work>
  </rdf:RDF>
 </metadata>
 <defs>
  <style type="text/css">*{stroke-linecap:butt;stroke-linejoin:round;}</style>
 </defs>
 <g id="figure_1">
  <g id="patch_1">
   <path d="M 0 449.28 
L 460.8 449.28 
L 460.8 0 
L 0 0 
z
" style="fill:none;"/>
  </g>
  <g id="axes_1">
   <g id="PolyCollection_1">
    <path clip-path="url(#p38dd4f777d)" d="M 21.927788 204.988835 
L 70.353054 230.935204 
L 71.946194 231.595104 
L 73.655843 231.820183 
L 75.365492 231.595104 
L 76.958631 230.935204 
L 78.326691 229.885454 
L 79.37644 228.517395 
L 80.03634 226.924255 
L 80.261419 225.214606 
L 80.03634 223.504957 
L 79.37644 221.911818 
L 78.326691 220.543758 
L 76.958631 219.494009 
L 36.991829 191.551722 
L 35.398689 190.891823 
L 33.68904 190.666743 
L 31.979391 190.891823 
L 23.520927 192.88774 
L 21.927788 193.54764 
L 20.559728 194.597389 
L 19.509979 195.965449 
L 18.850079 197.558588 
L 18.624999 199.268237 
L 18.850079 200.977886 
L 19.509979 202.571026 
L 20.559728 203.939086 
z
" style="fill:#3b528b;fill-opacity:0.5;stroke:#000000;stroke-width:2;"/>
    <path clip-path="url(#p38dd4f777d)" d="M 43.849739 167.647073 
L 43.478618 176.39517 
L 43.703698 178.10482 
L 44.363598 179.697959 
L 45.413347 181.066019 
L 83.347941 211.980869 
L 84.716001 213.030619 
L 86.30914 213.690519 
L 88.018789 213.915598 
L 89.728438 213.690519 
L 91.321578 213.030619 
L 92.689637 211.980869 
L 93.739386 210.61281 
L 94.399286 209.01967 
L 94.624366 207.310021 
L 94.399286 205.600372 
L 93.739386 204.007233 
L 92.689637 202.639173 
L 55.126164 162.976225 
L 53.758104 161.926476 
L 52.164965 161.266576 
L 50.455316 161.041496 
L 48.745667 161.266576 
L 47.152528 161.926476 
L 45.784468 162.976225 
L 44.734719 164.344285 
L 44.074819 165.937424 
z
" style="fill:#3b528b;fill-opacity:0.5;stroke:#000000;stroke-width:2;"/>
    <path clip-path="url(#p38dd4f777d)" d="M 17.603113 203.671955 
L 19.002779 205.496035 
L 20.826858 206.8957 
L 22.951044 207.775567 
L 25.230576 208.075673 
L 27.510108 207.775567 
L 35.968573 205.779649 
L 38.092758 204.899783 
L 39.916838 203.500117 
L 56.311993 182.622968 
L 57.711658 180.798888 
L 58.591525 178.674703 
L 58.891631 176.39517 
L 59.262752 167.647073 
L 58.962646 165.367541 
L 58.082779 163.243355 
L 56.683114 161.419276 
L 54.859034 160.01961 
L 52.734848 159.139744 
L 50.455316 158.839637 
L 48.175784 159.139744 
L 46.051598 160.01961 
L 44.227519 161.419276 
L 19.002779 193.04044 
L 17.603113 194.86452 
L 16.723247 196.988705 
L 16.42314 199.268237 
L 16.723247 201.54777 
z
" style="fill:#21918c;fill-opacity:0.5;stroke:#000000;stroke-width:2;"/>
    <path clip-path="url(#p38dd4f777d)" d="M 83.615071 199.682558 
L 81.790992 201.082224 
L 67.428045 218.986809 
L 66.028379 220.810888 
L 65.148513 222.935074 
L 64.848407 225.214606 
L 65.148513 227.494138 
L 66.028379 229.618324 
L 67.428045 231.442404 
L 69.252125 232.842069 
L 71.37631 233.721936 
L 73.655843 234.022042 
L 75.935375 233.721936 
L 78.05956 232.842069 
L 79.88364 231.442404 
L 94.246587 213.537819 
L 95.646252 211.713739 
L 96.526119 209.589553 
L 96.826225 207.310021 
L 96.526119 205.030489 
L 95.646252 202.906303 
L 94.246587 201.082224 
L 92.422507 199.682558 
L 90.298321 198.802692 
L 88.018789 198.502586 
L 85.739257 198.802692 
z
" style="fill:#440154;fill-opacity:0.5;stroke:#000000;stroke-width:2;"/>
    <path clip-path="url(#p38dd4f777d)" d="M 193.788164 238.328828 
L 140.519215 228.064847 
L 138.809565 227.839768 
L 137.099916 228.064847 
L 135.506777 228.724747 
L 134.138717 229.774496 
L 133.088968 231.142556 
L 132.429068 232.735695 
L 132.203989 234.445344 
L 132.429068 236.154993 
L 133.088968 237.748133 
L 134.138717 239.116193 
L 135.506777 240.165942 
L 137.099916 240.825842 
L 182.723374 255.724633 
L 184.433023 255.949712 
L 186.142672 255.724633 
L 187.735811 255.064733 
L 195.381303 250.429923 
L 196.749363 249.380174 
L 197.799112 248.012114 
L 198.459012 246.418975 
L 198.684091 244.709326 
L 198.459012 242.999677 
L 197.799112 241.406537 
L 196.749363 240.038478 
L 195.381303 238.988728 
z
" style="fill:#3b528b;fill-opacity:0.5;stroke:#000000;stroke-width:2;"/>
    <path clip-path="url(#p38dd4f777d)" d="M 128.870158 261.960667 
L 172.495778 287.353524 
L 174.088918 288.013424 
L 175.798567 288.238504 
L 177.508216 288.013424 
L 179.101355 287.353524 
L 185.917499 284.100174 
L 187.285559 283.050425 
L 188.335308 281.682366 
L 188.995208 280.089226 
L 189.220287 278.379577 
L 188.995208 276.669928 
L 188.335308 275.076789 
L 187.285559 273.708729 
L 185.917499 272.65898 
L 135.475735 250.519472 
L 133.882595 249.859572 
L 132.172946 249.634493 
L 130.463297 249.859572 
L 128.870158 250.519472 
L 127.502098 251.569221 
L 126.452349 252.937281 
L 125.792449 254.530421 
L 125.567369 256.24007 
L 125.792449 257.949719 
L 126.452349 259.542858 
L 127.502098 260.910918 
z
" style="fill:#3b528b;fill-opacity:0.5;stroke:#000000;stroke-width:2;"/>
    <path clip-path="url(#p38dd4f777d)" d="M 168.171104 286.036645 
L 169.570769 287.860724 
L 171.394849 289.26039 
L 173.519035 290.140256 
L 175.798567 290.440363 
L 178.078099 290.140256 
L 180.202285 289.26039 
L 187.018428 286.00704 
L 188.842508 284.607375 
L 190.242174 282.783295 
L 191.12204 280.659109 
L 200.585844 246.988858 
L 200.88595 244.709326 
L 200.585844 242.429794 
L 199.705978 240.305608 
L 198.306312 238.481528 
L 196.482233 237.081863 
L 194.358047 236.201996 
L 192.078515 235.90189 
L 189.798983 236.201996 
L 187.674797 237.081863 
L 180.029305 241.716672 
L 178.205225 243.116338 
L 176.80556 244.940418 
L 175.925693 247.064603 
L 167.291237 279.353395 
L 166.991131 281.632927 
L 167.291237 283.912459 
z
" style="fill:#21918c;fill-opacity:0.5;stroke:#000000;stroke-width:2;"/>
    <path clip-path="url(#p38dd4f777d)" d="M 123.36551 256.24007 
L 123.665616 258.519602 
L 124.545483 260.643788 
L 125.945149 262.467867 
L 127.769228 263.867533 
L 129.893414 264.747399 
L 132.172946 265.047505 
L 134.452478 264.747399 
L 136.576664 263.867533 
L 138.400744 262.467867 
L 139.800409 260.643788 
L 140.680276 258.519602 
L 147.316895 236.724876 
L 147.617001 234.445344 
L 147.316895 232.165812 
L 146.437029 230.041626 
L 145.037363 228.217547 
L 143.213283 226.817881 
L 141.089098 225.938015 
L 138.809565 225.637909 
L 136.530033 225.938015 
L 134.405848 226.817881 
L 132.581768 228.217547 
L 131.182102 230.041626 
L 130.302236 232.165812 
L 123.665616 253.960538 
z
" style="fill:#440154;fill-opacity:0.5;stroke:#000000;stroke-width:2;"/>
    <path clip-path="url(#p38dd4f777d)" d="M 149.443727 237.29476 
L 149.81886 234.445344 
L 149.443727 231.595929 
L 148.343894 228.940697 
L 146.594312 226.660597 
L 144.314213 224.911015 
L 93.523437 197.775692 
L 90.868204 196.675859 
L 88.018789 196.300727 
L 85.169374 196.675859 
L 82.514142 197.775692 
L 80.234042 199.525274 
L 65.871096 217.429859 
L 64.121514 219.709959 
L 63.021681 222.365191 
L 62.646548 225.214606 
L 63.021681 228.064021 
L 64.121514 230.719254 
L 65.871096 232.999353 
L 86.651387 252.462373 
L 88.019446 253.512123 
L 99.984548 259.781738 
L 101.577687 260.441638 
L 129.323531 266.874232 
L 132.172946 267.249364 
L 135.022361 266.874232 
L 137.677593 265.774399 
L 139.957693 264.024817 
L 141.707275 261.744717 
L 142.807108 259.089485 
z
" style="fill:#fde725;fill-opacity:0.5;stroke:#000000;stroke-width:2;"/>
   </g>
   <g id="PolyCollection_2">
    <path clip-path="url(#p38dd4f777d)" d="M 75.857702 225.214606 
L 75.782675 224.644723 
L 75.562708 224.113677 
L 75.212792 223.657657 
L 74.756772 223.30774 
L 74.225726 223.087774 
L 73.655843 223.012747 
L 73.08596 223.087774 
L 72.554913 223.30774 
L 72.098893 223.657657 
L 71.748977 224.113677 
L 71.52901 224.644723 
L 71.453984 225.214606 
L 71.52901 225.784489 
L 71.748977 226.315536 
L 72.098893 226.771556 
L 72.554913 227.121472 
L 73.08596 227.341439 
L 73.655843 227.416465 
L 74.225726 227.341439 
L 74.756772 227.121472 
L 75.212792 226.771556 
L 75.562708 226.315536 
L 75.782675 225.784489 
z
"/>
    <path clip-path="url(#p38dd4f777d)" d="M 27.432435 199.268237 
L 27.357409 198.698354 
L 27.137442 198.167308 
L 26.787526 197.711288 
L 26.331506 197.361372 
L 25.800459 197.141405 
L 25.230576 197.066378 
L 24.660693 197.141405 
L 24.129647 197.361372 
L 23.673627 197.711288 
L 23.32371 198.167308 
L 23.103744 198.698354 
L 23.028717 199.268237 
L 23.103744 199.83812 
L 23.32371 200.369167 
L 23.673627 200.825187 
L 24.129647 201.175103 
L 24.660693 201.39507 
L 25.230576 201.470096 
L 25.800459 201.39507 
L 26.331506 201.175103 
L 26.787526 200.825187 
L 27.137442 200.369167 
L 27.357409 199.83812 
z
"/>
    <path clip-path="url(#p38dd4f777d)" d="M 35.890899 197.27232 
L 35.815873 196.702437 
L 35.595906 196.17139 
L 35.24599 195.71537 
L 34.78997 195.365454 
L 34.258923 195.145487 
L 33.68904 195.070461 
L 33.119157 195.145487 
L 32.588111 195.365454 
L 32.132091 195.71537 
L 31.782175 196.17139 
L 31.562208 196.702437 
L 31.487181 197.27232 
L 31.562208 197.842203 
L 31.782175 198.373249 
L 32.132091 198.829269 
L 32.588111 199.179186 
L 33.119157 199.399152 
L 33.68904 199.474179 
L 34.258923 199.399152 
L 34.78997 199.179186 
L 35.24599 198.829269 
L 35.595906 198.373249 
L 35.815873 197.842203 
z
"/>
    <path clip-path="url(#p38dd4f777d)" d="M 52.657175 167.647073 
L 52.582148 167.07719 
L 52.362182 166.546144 
L 52.012265 166.090124 
L 51.556246 165.740207 
L 51.025199 165.520241 
L 50.455316 165.445214 
L 49.885433 165.520241 
L 49.354387 165.740207 
L 48.898367 166.090124 
L 48.54845 166.546144 
L 48.328484 167.07719 
L 48.253457 167.647073 
L 48.328484 168.216956 
L 48.54845 168.748003 
L 48.898367 169.204023 
L 49.354387 169.553939 
L 49.885433 169.773906 
L 50.455316 169.848932 
L 51.025199 169.773906 
L 51.556246 169.553939 
L 52.012265 169.204023 
L 52.362182 168.748003 
L 52.582148 168.216956 
z
"/>
    <path clip-path="url(#p38dd4f777d)" d="M 52.286054 176.39517 
L 52.211028 175.825287 
L 51.991061 175.294241 
L 51.641145 174.838221 
L 51.185125 174.488305 
L 50.654078 174.268338 
L 50.084195 174.193312 
L 49.514312 174.268338 
L 48.983266 174.488305 
L 48.527246 174.838221 
L 48.177329 175.294241 
L 47.957363 175.825287 
L 47.882336 176.39517 
L 47.957363 176.965053 
L 48.177329 177.4961 
L 48.527246 177.95212 
L 48.983266 178.302036 
L 49.514312 178.522003 
L 50.084195 178.597029 
L 50.654078 178.522003 
L 51.185125 178.302036 
L 51.641145 177.95212 
L 51.991061 177.4961 
L 52.211028 176.965053 
z
"/>
    <path clip-path="url(#p38dd4f777d)" d="M 90.220648 207.310021 
L 90.145622 206.740138 
L 89.925655 206.209092 
L 89.575739 205.753072 
L 89.119719 205.403156 
L 88.588672 205.183189 
L 88.018789 205.108162 
L 87.448906 205.183189 
L 86.91786 205.403156 
L 86.46184 205.753072 
L 86.111923 206.209092 
L 85.891957 206.740138 
L 85.81693 207.310021 
L 85.891957 207.879904 
L 86.111923 208.410951 
L 86.46184 208.866971 
L 86.91786 209.216887 
L 87.448906 209.436854 
L 88.018789 209.51188 
L 88.588672 209.436854 
L 89.119719 209.216887 
L 89.575739 208.866971 
L 89.925655 208.410951 
L 90.145622 207.879904 
z
"/>
    <path clip-path="url(#p38dd4f777d)" d="M 141.011424 234.445344 
L 140.936398 233.875461 
L 140.716431 233.344415 
L 140.366515 232.888395 
L 139.910495 232.538479 
L 139.379448 232.318512 
L 138.809565 232.243485 
L 138.239682 232.318512 
L 137.708636 232.538479 
L 137.252616 232.888395 
L 136.9027 233.344415 
L 136.682733 233.875461 
L 136.607706 234.445344 
L 136.682733 235.015227 
L 136.9027 235.546274 
L 137.252616 236.002294 
L 137.708636 236.35221 
L 138.239682 236.572177 
L 138.809565 236.647203 
L 139.379448 236.572177 
L 139.910495 236.35221 
L 140.366515 236.002294 
L 140.716431 235.546274 
L 140.936398 235.015227 
z
"/>
    <path clip-path="url(#p38dd4f777d)" d="M 194.280374 244.709326 
L 194.205347 244.139443 
L 193.98538 243.608396 
L 193.635464 243.152376 
L 193.179444 242.80246 
L 192.648398 242.582493 
L 192.078515 242.507467 
L 191.508632 242.582493 
L 190.977585 242.80246 
L 190.521565 243.152376 
L 190.171649 243.608396 
L 189.951682 244.139443 
L 189.876656 244.709326 
L 189.951682 245.279209 
L 190.171649 245.810255 
L 190.521565 246.266275 
L 190.977585 246.616191 
L 191.508632 246.836158 
L 192.078515 246.911185 
L 192.648398 246.836158 
L 193.179444 246.616191 
L 193.635464 246.266275 
L 193.98538 245.810255 
L 194.205347 245.279209 
z
"/>
    <path clip-path="url(#p38dd4f777d)" d="M 186.634882 249.344135 
L 186.559855 248.774252 
L 186.339889 248.243206 
L 185.989972 247.787186 
L 185.533952 247.43727 
L 185.002906 247.217303 
L 184.433023 247.142277 
L 183.86314 247.217303 
L 183.332093 247.43727 
L 182.876074 247.787186 
L 182.526157 248.243206 
L 182.306191 248.774252 
L 182.231164 249.344135 
L 182.306191 249.914018 
L 182.526157 250.445065 
L 182.876074 250.901085 
L 183.332093 251.251001 
L 183.86314 251.470968 
L 184.433023 251.545994 
L 185.002906 251.470968 
L 185.533952 251.251001 
L 185.989972 250.901085 
L 186.339889 250.445065 
L 186.559855 249.914018 
z
"/>
    <path clip-path="url(#p38dd4f777d)" d="M 134.374805 256.24007 
L 134.299779 255.670187 
L 134.079812 255.13914 
L 133.729895 254.68312 
L 133.273876 254.333204 
L 132.742829 254.113237 
L 132.172946 254.038211 
L 131.603063 254.113237 
L 131.072017 254.333204 
L 130.615997 254.68312 
L 130.26608 255.13914 
L 130.046114 255.670187 
L 129.971087 256.24007 
L 130.046114 256.809953 
L 130.26608 257.340999 
L 130.615997 257.797019 
L 131.072017 258.146935 
L 131.603063 258.366902 
L 132.172946 258.441929 
L 132.742829 258.366902 
L 133.273876 258.146935 
L 133.729895 257.797019 
L 134.079812 257.340999 
L 134.299779 256.809953 
z
"/>
    <path clip-path="url(#p38dd4f777d)" d="M 178.000426 281.632927 
L 177.925399 281.063044 
L 177.705433 280.531997 
L 177.355516 280.075977 
L 176.899496 279.726061 
L 176.36845 279.506094 
L 175.798567 279.431068 
L 175.228684 279.506094 
L 174.697637 279.726061 
L 174.241617 280.075977 
L 173.891701 280.531997 
L 173.671734 281.063044 
L 173.596708 281.632927 
L 173.671734 282.20281 
L 173.891701 282.733856 
L 174.241617 283.189876 
L 174.697637 283.539793 
L 175.228684 283.759759 
L 175.798567 283.834786 
L 176.36845 283.759759 
L 176.899496 283.539793 
L 177.355516 283.189876 
L 177.705433 282.733856 
L 177.925399 282.20281 
z
"/>
    <path clip-path="url(#p38dd4f777d)" d="M 184.81657 278.379577 
L 184.741543 277.809694 
L 184.521576 277.278648 
L 184.17166 276.822628 
L 183.71564 276.472711 
L 183.184594 276.252745 
L 182.614711 276.177718 
L 182.044828 276.252745 
L 181.513781 276.472711 
L 181.057761 276.822628 
L 180.707845 277.278648 
L 180.487878 277.809694 
L 180.412852 278.379577 
L 180.487878 278.94946 
L 180.707845 279.480507 
L 181.057761 279.936526 
L 181.513781 280.286443 
L 182.044828 280.50641 
L 182.614711 280.581436 
L 183.184594 280.50641 
L 183.71564 280.286443 
L 184.17166 279.936526 
L 184.521576 279.480507 
L 184.741543 278.94946 
z
"/>
    <path clip-path="url(#p38dd4f777d)" d="M 93.524094 247.791525 
L 93.449067 247.221642 
L 93.229101 246.690596 
L 92.879184 246.234576 
L 92.423164 245.88466 
L 91.892118 245.664693 
L 91.322235 245.589666 
L 90.752352 245.664693 
L 90.221305 245.88466 
L 89.765285 246.234576 
L 89.415369 246.690596 
L 89.195402 247.221642 
L 89.120376 247.791525 
L 89.195402 248.361408 
L 89.415369 248.892455 
L 89.765285 249.348475 
L 90.221305 249.698391 
L 90.752352 249.918358 
L 91.322235 249.993384 
L 91.892118 249.918358 
L 92.423164 249.698391 
L 92.879184 249.348475 
L 93.229101 248.892455 
L 93.449067 248.361408 
z
"/>
    <path clip-path="url(#p38dd4f777d)" d="M 105.489195 254.06114 
L 105.414169 253.491257 
L 105.194202 252.960211 
L 104.844286 252.504191 
L 104.388266 252.154275 
L 103.857219 251.934308 
L 103.287336 251.859282 
L 102.717453 251.934308 
L 102.186407 252.154275 
L 101.730387 252.504191 
L 101.380471 252.960211 
L 101.160504 253.491257 
L 101.085478 254.06114 
L 101.160504 254.631024 
L 101.380471 255.16207 
L 101.730387 255.61809 
L 102.186407 255.968006 
L 102.717453 256.187973 
L 103.287336 256.262999 
L 103.857219 256.187973 
L 104.388266 255.968006 
L 104.844286 255.61809 
L 105.194202 255.16207 
L 105.414169 254.631024 
z
"/>
   </g>
  </g>
  <g id="axes_2">
   <g id="PolyCollection_3">
    <path clip-path="url(#p7c8116c7fb)" d="M 265.418697 204.988835 
L 313.843963 230.935204 
L 315.437103 231.595104 
L 317.146752 231.820183 
L 318.856401 231.595104 
L 320.44954 230.935204 
L 321.8176 229.885454 
L 322.867349 228.517395 
L 323.527249 226.924255 
L 323.752329 225.214606 
L 323.527249 223.504957 
L 322.867349 221.911818 
L 321.8176 220.543758 
L 320.44954 219.494009 
L 280.482738 191.551722 
L 278.889599 190.891823 
L 277.17995 190.666743 
L 275.4703 190.891823 
L 267.011836 192.88774 
L 265.418697 193.54764 
L 264.050637 194.597389 
L 263.000888 195.965449 
L 262.340988 197.558588 
L 262.115909 199.268237 
L 262.340988 200.977886 
L 263.000888 202.571026 
L 264.050637 203.939086 
z
" style="fill:#3b528b;fill-opacity:0.5;stroke:#000000;stroke-width:2;"/>
    <path clip-path="url(#p7c8116c7fb)" d="M 287.340648 167.647073 
L 286.969527 176.39517 
L 287.194607 178.10482 
L 287.854507 179.697959 
L 288.904256 181.066019 
L 326.83885 211.980869 
L 328.20691 213.030619 
L 329.800049 213.690519 
L 331.509698 213.915598 
L 333.219347 213.690519 
L 334.812487 213.030619 
L 336.180546 211.980869 
L 337.230296 210.61281 
L 337.890195 209.01967 
L 338.115275 207.310021 
L 337.890195 205.600372 
L 337.230296 204.007233 
L 336.180546 202.639173 
L 298.617073 162.976225 
L 297.249014 161.926476 
L 295.655874 161.266576 
L 293.946225 161.041496 
L 292.236576 161.266576 
L 290.643437 161.926476 
L 289.275377 162.976225 
L 288.225628 164.344285 
L 287.565728 165.937424 
z
" style="fill:#3b528b;fill-opacity:0.5;stroke:#000000;stroke-width:2;"/>
    <path clip-path="url(#p7c8116c7fb)" d="M 261.094022 203.671955 
L 262.493688 205.496035 
L 264.317767 206.8957 
L 266.441953 207.775567 
L 268.721485 208.075673 
L 271.001017 207.775567 
L 279.459482 205.779649 
L 281.583667 204.899783 
L 283.407747 203.500117 
L 299.802902 182.622968 
L 301.202567 180.798888 
L 302.082434 178.674703 
L 302.38254 176.39517 
L 302.753661 167.647073 
L 302.453555 165.367541 
L 301.573688 163.243355 
L 300.174023 161.419276 
L 298.349943 160.01961 
L 296.225757 159.139744 
L 293.946225 158.839637 
L 291.666693 159.139744 
L 289.542507 160.01961 
L 287.718428 161.419276 
L 262.493688 193.04044 
L 261.094022 194.86452 
L 260.214156 196.988705 
L 259.91405 199.268237 
L 260.214156 201.54777 
z
" style="fill:#21918c;fill-opacity:0.5;stroke:#000000;stroke-width:2;"/>
    <path clip-path="url(#p7c8116c7fb)" d="M 327.10598 199.682558 
L 325.281901 201.082224 
L 310.918954 218.986809 
L 309.519289 220.810888 
L 308.639422 222.935074 
L 308.339316 225.214606 
L 308.639422 227.494138 
L 309.519289 229.618324 
L 310.918954 231.442404 
L 312.743034 232.842069 
L 314.86722 233.721936 
L 317.146752 234.022042 
L 319.426284 233.721936 
L 321.55047 232.842069 
L 323.374549 231.442404 
L 337.737496 213.537819 
L 339.137161 211.713739 
L 340.017028 209.589553 
L 340.317134 207.310021 
L 340.017028 205.030489 
L 339.137161 202.906303 
L 337.737496 201.082224 
L 335.913416 199.682558 
L 333.78923 198.802692 
L 331.509698 198.502586 
L 329.230166 198.802692 
z
" style="fill:#440154;fill-opacity:0.5;stroke:#000000;stroke-width:2;"/>
    <path clip-path="url(#p7c8116c7fb)" d="M 437.279073 238.328828 
L 384.010124 228.064847 
L 382.300475 227.839768 
L 380.590825 228.064847 
L 378.997686 228.724747 
L 377.629626 229.774496 
L 376.579877 231.142556 
L 375.919977 232.735695 
L 375.694898 234.445344 
L 375.919977 236.154993 
L 376.579877 237.748133 
L 377.629626 239.116193 
L 378.997686 240.165942 
L 380.590825 240.825842 
L 426.214283 255.724633 
L 427.923932 255.949712 
L 429.633581 255.724633 
L 431.22672 255.064733 
L 438.872212 250.429923 
L 440.240272 249.380174 
L 441.290021 248.012114 
L 441.949921 246.418975 
L 442.175001 244.709326 
L 441.949921 242.999677 
L 441.290021 241.406537 
L 440.240272 240.038478 
L 438.872212 238.988728 
z
" style="fill:#3b528b;fill-opacity:0.5;stroke:#000000;stroke-width:2;"/>
    <path clip-path="url(#p7c8116c7fb)" d="M 372.361067 261.960667 
L 415.986688 287.353524 
L 417.579827 288.013424 
L 419.289476 288.238504 
L 420.999125 288.013424 
L 422.592264 287.353524 
L 429.408408 284.100174 
L 430.776468 283.050425 
L 431.826217 281.682366 
L 432.486117 280.089226 
L 432.711196 278.379577 
L 432.486117 276.669928 
L 431.826217 275.076789 
L 430.776468 273.708729 
L 429.408408 272.65898 
L 378.966644 250.519472 
L 377.373504 249.859572 
L 375.663855 249.634493 
L 373.954206 249.859572 
L 372.361067 250.519472 
L 370.993007 251.569221 
L 369.943258 252.937281 
L 369.283358 254.530421 
L 369.058278 256.24007 
L 369.283358 257.949719 
L 369.943258 259.542858 
L 370.993007 260.910918 
z
" style="fill:#3b528b;fill-opacity:0.5;stroke:#000000;stroke-width:2;"/>
    <path clip-path="url(#p7c8116c7fb)" d="M 411.662013 286.036645 
L 413.061678 287.860724 
L 414.885758 289.26039 
L 417.009944 290.140256 
L 419.289476 290.440363 
L 421.569008 290.140256 
L 423.693194 289.26039 
L 430.509338 286.00704 
L 432.333417 284.607375 
L 433.733083 282.783295 
L 434.612949 280.659109 
L 444.076753 246.988858 
L 444.37686 244.709326 
L 444.076753 242.429794 
L 443.196887 240.305608 
L 441.797221 238.481528 
L 439.973142 237.081863 
L 437.848956 236.201996 
L 435.569424 235.90189 
L 433.289892 236.201996 
L 431.165706 237.081863 
L 423.520214 241.716672 
L 421.696135 243.116338 
L 420.296469 244.940418 
L 419.416602 247.064603 
L 410.782146 279.353395 
L 410.48204 281.632927 
L 410.782146 283.912459 
z
" style="fill:#21918c;fill-opacity:0.5;stroke:#000000;stroke-width:2;"/>
    <path clip-path="url(#p7c8116c7fb)" d="M 366.856419 256.24007 
L 367.156526 258.519602 
L 368.036392 260.643788 
L 369.436058 262.467867 
L 371.260137 263.867533 
L 373.384323 264.747399 
L 375.663855 265.047505 
L 377.943387 264.747399 
L 380.067573 263.867533 
L 381.891653 262.467867 
L 383.291318 260.643788 
L 384.171185 258.519602 
L 390.807804 236.724876 
L 391.10791 234.445344 
L 390.807804 232.165812 
L 389.927938 230.041626 
L 388.528272 228.217547 
L 386.704192 226.817881 
L 384.580007 225.938015 
L 382.300475 225.637909 
L 380.020942 225.938015 
L 377.896757 226.817881 
L 376.072677 228.217547 
L 374.673011 230.041626 
L 373.793145 232.165812 
L 367.156526 253.960538 
z
" style="fill:#440154;fill-opacity:0.5;stroke:#000000;stroke-width:2;"/>
    <path clip-path="url(#p7c8116c7fb)" d="M 392.934637 237.29476 
L 393.309769 234.445344 
L 392.934637 231.595929 
L 391.834803 228.940697 
L 390.085221 226.660597 
L 387.805122 224.911015 
L 337.014346 197.775692 
L 334.359113 196.675859 
L 331.509698 196.300727 
L 328.660283 196.675859 
L 326.005051 197.775692 
L 323.724951 199.525274 
L 309.362005 217.429859 
L 307.612423 219.709959 
L 306.51259 222.365191 
L 306.137457 225.214606 
L 306.51259 228.064021 
L 307.612423 230.719254 
L 309.362005 232.999353 
L 330.142296 252.462373 
L 331.510356 253.512123 
L 343.475457 259.781738 
L 345.068596 260.441638 
L 372.81444 266.874232 
L 375.663855 267.249364 
L 378.51327 266.874232 
L 381.168503 265.774399 
L 383.448602 264.024817 
L 385.198184 261.744717 
L 386.298017 259.089485 
z
" style="fill:#fde725;fill-opacity:0.5;stroke:#000000;stroke-width:2;"/>
   </g>
   <g id="PolyCollection_4">
    <path clip-path="url(#p7c8116c7fb)" d="M 319.348611 225.214606 
L 319.273584 224.644723 
L 319.053617 224.113677 
L 318.703701 223.657657 
L 318.247681 223.30774 
L 317.716635 223.087774 
L 317.146752 223.012747 
L 316.576869 223.087774 
L 316.045822 223.30774 
L 315.589802 223.657657 
L 315.239886 224.113677 
L 315.019919 224.644723 
L 314.944893 225.214606 
L 315.019919 225.784489 
L 315.239886 226.315536 
L 315.589802 226.771556 
L 316.045822 227.121472 
L 316.576869 227.341439 
L 317.146752 227.416465 
L 317.716635 227.341439 
L 318.247681 227.121472 
L 318.703701 226.771556 
L 319.053617 226.315536 
L 319.273584 225.784489 
z
"/>
    <path clip-path="url(#p7c8116c7fb)" d="M 270.923344 199.268237 
L 270.848318 198.698354 
L 270.628351 198.167308 
L 270.278435 197.711288 
L 269.822415 197.361372 
L 269.291368 197.141405 
L 268.721485 197.066378 
L 268.151602 197.141405 
L 267.620556 197.361372 
L 267.164536 197.711288 
L 266.81462 198.167308 
L 266.594653 198.698354 
L 266.519626 199.268237 
L 266.594653 199.83812 
L 266.81462 200.369167 
L 267.164536 200.825187 
L 267.620556 201.175103 
L 268.151602 201.39507 
L 268.721485 201.470096 
L 269.291368 201.39507 
L 269.822415 201.175103 
L 270.278435 200.825187 
L 270.628351 200.369167 
L 270.848318 199.83812 
z
"/>
    <path clip-path="url(#p7c8116c7fb)" d="M 279.381808 197.27232 
L 279.306782 196.702437 
L 279.086815 196.17139 
L 278.736899 195.71537 
L 278.280879 195.365454 
L 277.749833 195.145487 
L 277.17995 195.070461 
L 276.610066 195.145487 
L 276.07902 195.365454 
L 275.623 195.71537 
L 275.273084 196.17139 
L 275.053117 196.702437 
L 274.978091 197.27232 
L 275.053117 197.842203 
L 275.273084 198.373249 
L 275.623 198.829269 
L 276.07902 199.179186 
L 276.610066 199.399152 
L 277.17995 199.474179 
L 277.749833 199.399152 
L 278.280879 199.179186 
L 278.736899 198.829269 
L 279.086815 198.373249 
L 279.306782 197.842203 
z
"/>
    <path clip-path="url(#p7c8116c7fb)" d="M 296.148084 167.647073 
L 296.073058 167.07719 
L 295.853091 166.546144 
L 295.503175 166.090124 
L 295.047155 165.740207 
L 294.516108 165.520241 
L 293.946225 165.445214 
L 293.376342 165.520241 
L 292.845296 165.740207 
L 292.389276 166.090124 
L 292.039359 166.546144 
L 291.819393 167.07719 
L 291.744366 167.647073 
L 291.819393 168.216956 
L 292.039359 168.748003 
L 292.389276 169.204023 
L 292.845296 169.553939 
L 293.376342 169.773906 
L 293.946225 169.848932 
L 294.516108 169.773906 
L 295.047155 169.553939 
L 295.503175 169.204023 
L 295.853091 168.748003 
L 296.073058 168.216956 
z
"/>
    <path clip-path="url(#p7c8116c7fb)" d="M 295.776963 176.39517 
L 295.701937 175.825287 
L 295.48197 175.294241 
L 295.132054 174.838221 
L 294.676034 174.488305 
L 294.144987 174.268338 
L 293.575104 174.193312 
L 293.005221 174.268338 
L 292.474175 174.488305 
L 292.018155 174.838221 
L 291.668238 175.294241 
L 291.448272 175.825287 
L 291.373245 176.39517 
L 291.448272 176.965053 
L 291.668238 177.4961 
L 292.018155 177.95212 
L 292.474175 178.302036 
L 293.005221 178.522003 
L 293.575104 178.597029 
L 294.144987 178.522003 
L 294.676034 178.302036 
L 295.132054 177.95212 
L 295.48197 177.4961 
L 295.701937 176.965053 
z
"/>
    <path clip-path="url(#p7c8116c7fb)" d="M 333.711557 207.310021 
L 333.636531 206.740138 
L 333.416564 206.209092 
L 333.066648 205.753072 
L 332.610628 205.403156 
L 332.079581 205.183189 
L 331.509698 205.108162 
L 330.939815 205.183189 
L 330.408769 205.403156 
L 329.952749 205.753072 
L 329.602832 206.209092 
L 329.382866 206.740138 
L 329.307839 207.310021 
L 329.382866 207.879904 
L 329.602832 208.410951 
L 329.952749 208.866971 
L 330.408769 209.216887 
L 330.939815 209.436854 
L 331.509698 209.51188 
L 332.079581 209.436854 
L 332.610628 209.216887 
L 333.066648 208.866971 
L 333.416564 208.410951 
L 333.636531 207.879904 
z
"/>
    <path clip-path="url(#p7c8116c7fb)" d="M 384.502333 234.445344 
L 384.427307 233.875461 
L 384.20734 233.344415 
L 383.857424 232.888395 
L 383.401404 232.538479 
L 382.870358 232.318512 
L 382.300475 232.243485 
L 381.730591 232.318512 
L 381.199545 232.538479 
L 380.743525 232.888395 
L 380.393609 233.344415 
L 380.173642 233.875461 
L 380.098616 234.445344 
L 380.173642 235.015227 
L 380.393609 235.546274 
L 380.743525 236.002294 
L 381.199545 236.35221 
L 381.730591 236.572177 
L 382.300475 236.647203 
L 382.870358 236.572177 
L 383.401404 236.35221 
L 383.857424 236.002294 
L 384.20734 235.546274 
L 384.427307 235.015227 
z
"/>
    <path clip-path="url(#p7c8116c7fb)" d="M 437.771283 244.709326 
L 437.696256 244.139443 
L 437.47629 243.608396 
L 437.126373 243.152376 
L 436.670353 242.80246 
L 436.139307 242.582493 
L 435.569424 242.507467 
L 434.999541 242.582493 
L 434.468494 242.80246 
L 434.012474 243.152376 
L 433.662558 243.608396 
L 433.442591 244.139443 
L 433.367565 244.709326 
L 433.442591 245.279209 
L 433.662558 245.810255 
L 434.012474 246.266275 
L 434.468494 246.616191 
L 434.999541 246.836158 
L 435.569424 246.911185 
L 436.139307 246.836158 
L 436.670353 246.616191 
L 437.126373 246.266275 
L 437.47629 245.810255 
L 437.696256 245.279209 
z
"/>
    <path clip-path="url(#p7c8116c7fb)" d="M 430.125791 249.344135 
L 430.050764 248.774252 
L 429.830798 248.243206 
L 429.480881 247.787186 
L 429.024862 247.43727 
L 428.493815 247.217303 
L 427.923932 247.142277 
L 427.354049 247.217303 
L 426.823003 247.43727 
L 426.366983 247.787186 
L 426.017066 248.243206 
L 425.7971 248.774252 
L 425.722073 249.344135 
L 425.7971 249.914018 
L 426.017066 250.445065 
L 426.366983 250.901085 
L 426.823003 251.251001 
L 427.354049 251.470968 
L 427.923932 251.545994 
L 428.493815 251.470968 
L 429.024862 251.251001 
L 429.480881 250.901085 
L 429.830798 250.445065 
L 430.050764 249.914018 
z
"/>
    <path clip-path="url(#p7c8116c7fb)" d="M 377.865714 256.24007 
L 377.790688 255.670187 
L 377.570721 255.13914 
L 377.220805 254.68312 
L 376.764785 254.333204 
L 376.233738 254.113237 
L 375.663855 254.038211 
L 375.093972 254.113237 
L 374.562926 254.333204 
L 374.106906 254.68312 
L 373.756989 255.13914 
L 373.537023 255.670187 
L 373.461996 256.24007 
L 373.537023 256.809953 
L 373.756989 257.340999 
L 374.106906 257.797019 
L 374.562926 258.146935 
L 375.093972 258.366902 
L 375.663855 258.441929 
L 376.233738 258.366902 
L 376.764785 258.146935 
L 377.220805 257.797019 
L 377.570721 257.340999 
L 377.790688 256.809953 
z
"/>
    <path clip-path="url(#p7c8116c7fb)" d="M 421.491335 281.632927 
L 421.416308 281.063044 
L 421.196342 280.531997 
L 420.846425 280.075977 
L 420.390405 279.726061 
L 419.859359 279.506094 
L 419.289476 279.431068 
L 418.719593 279.506094 
L 418.188546 279.726061 
L 417.732527 280.075977 
L 417.38261 280.531997 
L 417.162643 281.063044 
L 417.087617 281.632927 
L 417.162643 282.20281 
L 417.38261 282.733856 
L 417.732527 283.189876 
L 418.188546 283.539793 
L 418.719593 283.759759 
L 419.289476 283.834786 
L 419.859359 283.759759 
L 420.390405 283.539793 
L 420.846425 283.189876 
L 421.196342 282.733856 
L 421.416308 282.20281 
z
"/>
    <path clip-path="url(#p7c8116c7fb)" d="M 428.307479 278.379577 
L 428.232452 277.809694 
L 428.012485 277.278648 
L 427.662569 276.822628 
L 427.206549 276.472711 
L 426.675503 276.252745 
L 426.10562 276.177718 
L 425.535737 276.252745 
L 425.00469 276.472711 
L 424.54867 276.822628 
L 424.198754 277.278648 
L 423.978787 277.809694 
L 423.903761 278.379577 
L 423.978787 278.94946 
L 424.198754 279.480507 
L 424.54867 279.936526 
L 425.00469 280.286443 
L 425.535737 280.50641 
L 426.10562 280.581436 
L 426.675503 280.50641 
L 427.206549 280.286443 
L 427.662569 279.936526 
L 428.012485 279.480507 
L 428.232452 278.94946 
z
"/>
    <path clip-path="url(#p7c8116c7fb)" d="M 337.015003 247.791525 
L 336.939976 247.221642 
L 336.72001 246.690596 
L 336.370093 246.234576 
L 335.914073 245.88466 
L 335.383027 245.664693 
L 334.813144 245.589666 
L 334.243261 245.664693 
L 333.712214 245.88466 
L 333.256195 246.234576 
L 332.906278 246.690596 
L 332.686312 247.221642 
L 332.611285 247.791525 
L 332.686312 248.361408 
L 332.906278 248.892455 
L 333.256195 249.348475 
L 333.712214 249.698391 
L 334.243261 249.918358 
L 334.813144 249.993384 
L 335.383027 249.918358 
L 335.914073 249.698391 
L 336.370093 249.348475 
L 336.72001 248.892455 
L 336.939976 248.361408 
z
"/>
    <path clip-path="url(#p7c8116c7fb)" d="M 348.980104 254.06114 
L 348.905078 253.491257 
L 348.685111 252.960211 
L 348.335195 252.504191 
L 347.879175 252.154275 
L 347.348129 251.934308 
L 346.778246 251.859282 
L 346.208363 251.934308 
L 345.677316 252.154275 
L 345.221296 252.504191 
L 344.87138 252.960211 
L 344.651413 253.491257 
L 344.576387 254.06114 
L 344.651413 254.631024 
L 344.87138 255.16207 
L 345.221296 255.61809 
L 345.677316 255.968006 
L 346.208363 256.187973 
L 346.778246 256.262999 
L 347.348129 256.187973 
L 347.879175 255.968006 
L 348.335195 255.61809 
L 348.685111 255.16207 
L 348.905078 254.631024 
z
"/>
   </g>
  </g>
 </g>
 <defs>
  <clipPath id="p38dd4f777d">
   <rect height="434.88" width="202.909091" x="7.2" y="7.2"/>
  </clipPath>
  <clipPath id="p7c8116c7fb">
   <rect height="434.88" width="202.909091" x="250.690909" y="7.2"/>
  </clipPath>
 </defs>
</svg>
